<?xml version="1.0" encoding="utf-8"?>
<!-- Generator: Adobe Illustrator 22.0.1, SVG Export Plug-In . SVG Version: 6.00 Build 0)  -->
<svg version="1.1" id="Layer_1" xmlns="http://www.w3.org/2000/svg" xmlns:xlink="http://www.w3.org/1999/xlink" x="0px" y="0px"
	 viewBox="0 0 910.2 258.9" style="enable-background:new 0 0 910.2 258.9;" xml:space="preserve">
<style type="text/css">
	.st0{fill:#FFFFFF;}
	.st1{fill:#FF0000;}
</style>
<g>
	<g>
		<g>
			<g>
				<path class="st0" d="M407.8,90.3c19.6,0,35.5,15.9,35.5,35.5c0,19.2-15.4,35-34.5,35.4l52.5,69.2h17.5l-46.3-61.5
					c15-8.6,25.1-24.7,25.1-43.1c0-27.4-22.3-49.6-49.6-49.6h-64v154.3h14.2V90.3H407.8z"/>
				<path class="st0" d="M394.5,154.1h13.3c15.6,0,28.4-12.7,28.4-28.4s-12.7-28.4-28.4-28.4h-42.6v133h14.2v-72.6l55.1,72.6h17.8
					L394.5,154.1z M379.4,111.6h28.4c7.8,0,14.2,6.4,14.2,14.2s-6.4,14.2-14.2,14.2h-28.4V111.6z"/>
			</g>
			<g>
				<polygon class="st0" points="807.8,76.1 807.8,229.5 899.1,229.5 899.1,216.2 821.1,216.2 821.1,89.4 899.1,89.4 899.1,76.1 
									"/>
				<g>
					<polygon class="st0" points="828.2,209.1 899.1,209.1 899.1,195.8 841.5,195.8 841.5,170.1 899.1,170.1 899.1,156.8 
						828.2,156.8 					"/>
					<polygon class="st0" points="899.1,109.8 899.1,96.5 828.2,96.5 828.2,149.7 899.1,149.7 899.1,136.4 841.5,136.4 841.5,109.8 
											"/>
				</g>
			</g>
			<g>
				<polygon class="st0" points="260.4,76.1 234.5,76.1 162,229.9 163,230.4 177.4,230.4 243.5,90.3 251.4,90.3 317.4,230.4 
					331.9,230.4 332.9,229.9 				"/>
				<g>
					<path class="st0" d="M284.5,177.2l-37.1-78.6l-37.1,78.6H284.5z M262.1,163h-29.4l14.7-31.1L262.1,163z"/>
					<polygon class="st0" points="287.8,184.3 207,184.3 185.3,230.4 201,230.4 216,198.5 278.9,198.5 293.9,230.4 309.6,230.4 
											"/>
				</g>
			</g>
			<g>
				<polygon class="st0" points="585.9,76.1 560.1,76.1 487.5,229.9 488.5,230.4 503,230.4 569,90.3 576.9,90.3 643,230.4 
					657.4,230.4 658.4,229.9 				"/>
				<g>
					<path class="st0" d="M610,177.2l-37-78.6l-37.1,78.6H610z M587.7,163h-29.4l14.7-31.1L587.7,163z"/>
					<polygon class="st0" points="613.4,184.3 532.6,184.3 510.8,230.4 526.5,230.4 541.6,198.5 604.4,198.5 619.4,230.4 
						635.1,230.4 					"/>
				</g>
			</g>
			<g>
				<path class="st0" d="M719.8,136.4v14.2h62.9v3.5c0,34.7-28.2,62.9-62.9,62.9s-62.9-28.2-62.9-62.9s28.2-62.9,62.9-62.9
					c13.3,0,25.9,4.1,36.7,11.8l8.3-11.5C751.5,82,736,77,719.8,77c-42.5,0-77.1,34.6-77.1,77.1s34.6,77.1,77.1,77.1
					s77.1-34.6,77.1-77.1v-17.7L719.8,136.4L719.8,136.4z"/>
				<path class="st0" d="M719.8,112.5c8.8,0,17.2,2.7,24.3,7.8l8.3-11.5c-9.5-6.8-20.8-10.4-32.5-10.4c-30.8,0-55.9,25.1-55.9,55.9
					s25,55.7,55.8,55.7c29.6,0,53.9-23.2,55.7-52.3h-55.7v14.2h37.7c-6.7,14.1-21.1,23.9-37.7,23.9c-23,0-41.7-18.7-41.7-41.7
					S696.8,112.5,719.8,112.5z"/>
			</g>
		</g>
		<g>
			<g>
				<path class="st0" d="M153.2,156.2c-1.9,30.5-26,55.9-57.4,58.5c-34.4,2.8-64.8-22.8-67.6-57.3S51,92.6,85.5,89.8
					c14.1-1.2,27.7,2.3,39.5,10l7.9-12c-14.5-9.5-31.3-13.8-48.6-12.4c-42.3,3.5-73.9,40.8-70.4,83.1s40.8,73.9,83.1,70.4
					c39.7-3.3,70-36.3,70.7-75.3L153.2,156.2z"/>
				<path class="st1" d="M191.9,143.9l-94.6-0.2h-0.1c-2-1.6-4.6-2.5-7.4-2.2c-5.9,0.5-10.3,5.7-9.8,11.6c0.5,5.9,5.7,10.3,11.6,9.8
					c2.8-0.2,5.2-1.5,7-3.4h0.1L191.9,143.9z"/>
			</g>
			<path class="st0" d="M137.2,158.9l-34.2,5.4h26.9c-4.8,15.5-18.6,27.4-35.8,28.8c-22.6,1.9-42.4-15-44.3-37.5
				c-1.9-22.6,15-42.4,37.5-44.3c9.2-0.8,18.2,1.5,25.9,6.6l7.9-12c-10.4-6.8-22.5-9.9-35-8.9c-30.5,2.5-53.2,29.4-50.7,59.8
				c2.5,30.5,29.4,53.2,59.8,50.7c27.2-2.2,48.2-23.8,50.6-50.1L137.2,158.9z"/>
			<g>
				<rect x="103" y="137.4" class="st0" width="65.6" height="2.2"/>
			</g>
		</g>
	</g>
</g>
<g>
	<path class="st0" d="M95.8,6.1v57.6h34.3V51h-21.6v-9.7h21.6V28.7h-21.6v-10h21.6V6.1H95.8z"/>
	<path class="st0" d="M76.3,6.1v22.4H67V6.1H54.1v57.6H67V41.4h9.3v22.4h12.9V6.1H76.3z"/>
	<polygon class="st0" points="23.9,63.7 23.9,18.7 13.1,18.7 13.1,5.7 47.5,5.7 47.5,18.7 36.8,18.7 36.8,63.7 	"/>
</g>
</svg>
